<mxfile host="app.diagrams.net" agent="Mozilla/5.0 (X11; Linux x86_64; rv:137.0) Gecko/20100101 Firefox/137.0" version="26.2.14">
  <diagram name="Page-1" id="miYOqahZDEgp6GLvhzzV">
    <mxGraphModel dx="731" dy="1360" grid="1" gridSize="10" guides="1" tooltips="1" connect="1" arrows="1" fold="1" page="1" pageScale="1" pageWidth="850" pageHeight="1100" math="0" shadow="0">
      <root>
        <mxCell id="0" />
        <mxCell id="1" parent="0" />
        <mxCell id="A5Bh5DaIcDQkjLzcvcFg-6" value="" style="ellipse;whiteSpace=wrap;html=1;fillColor=none;dashed=1;dashPattern=12 12;" vertex="1" parent="1">
          <mxGeometry x="50" y="400" width="410" height="240" as="geometry" />
        </mxCell>
        <mxCell id="WmRn3ag8AA0C3TBZO2lk-5" style="edgeStyle=orthogonalEdgeStyle;rounded=0;orthogonalLoop=1;jettySize=auto;html=1;" parent="1" edge="1">
          <mxGeometry relative="1" as="geometry">
            <mxPoint x="201.10000000000002" y="509.5" as="sourcePoint" />
            <mxPoint x="300" y="509.4000000000001" as="targetPoint" />
          </mxGeometry>
        </mxCell>
        <mxCell id="WmRn3ag8AA0C3TBZO2lk-2" value="Sensor in BMS" style="text;html=1;align=center;verticalAlign=middle;whiteSpace=wrap;rounded=0;" parent="1" vertex="1">
          <mxGeometry x="110" y="563.87" width="80" height="30" as="geometry" />
        </mxCell>
        <mxCell id="WmRn3ag8AA0C3TBZO2lk-8" value="Timescale DB" style="text;html=1;align=center;verticalAlign=middle;whiteSpace=wrap;rounded=0;" parent="1" vertex="1">
          <mxGeometry x="525" y="563.87" width="80" height="30" as="geometry" />
        </mxCell>
        <mxCell id="WmRn3ag8AA0C3TBZO2lk-13" value="Automation server" style="text;html=1;align=center;verticalAlign=middle;whiteSpace=wrap;rounded=0;" parent="1" vertex="1">
          <mxGeometry x="320" y="563.87" width="80" height="30" as="geometry" />
        </mxCell>
        <mxCell id="A5Bh5DaIcDQkjLzcvcFg-1" value="" style="shape=image;verticalLabelPosition=bottom;labelBackgroundColor=default;verticalAlign=top;aspect=fixed;imageAspect=0;editableCssRules=.*;image=data:image/svg+xml,PHN2ZyB4bWxucz0iaHR0cDovL3d3dy53My5vcmcvMjAwMC9zdmciIHZpZXdCb3g9IjU5Ljk0MzYwMzUxNTYyNSAyMjguNTYzOTM0MzI2MTcxODggMTA4MC4xMDMzOTM1NTQ2ODc1IDc0Mi44NjAzNTE1NjI1IiB2ZXJzaW9uPSIxLjEiIGhlaWdodD0iNzQyLjg2MDM1MTU2MjUiIHdpZHRoPSIxMDgwLjEwMzM5MzU1NDY4NzUiPiYjeGE7IDxwYXRoIGZpbGwtcnVsZT0iZXZlbm9kZCIgZD0ibTY1My43MiA1NDYuMjhjLTIxLjcwMy0yMS43NS01NC40MjItMjguMjY2LTgyLjc4MS0xNi41LTI4LjQwNiAxMS43NjYtNDYuOTIyIDM5LjQ2OS00Ni45MjIgNzAuMjE5czE4LjUxNiA1OC40NTMgNDYuOTIyIDcwLjIxOWMyOC4zNTkgMTEuNzY2IDYxLjA3OCA1LjI1IDgyLjc4MS0xNi41IDI5LjY3Mi0yOS42NzIgMjkuNjcyLTc3Ljc2NiAwLTEwNy40NHptLTUzLjcxOS01MS4wNDdjNDIuMzc1IDAgODAuNTc4IDI1LjU0NyA5Ni43OTcgNjQuNjg4IDE2LjE3MiAzOS4xNDEgNy4yMTg4IDg0LjE4OC0yMi43MzQgMTE0LjE0cy03NSAzOC45MDYtMTE0LjE0IDIyLjczNGMtMzkuMTQxLTE2LjIxOS02NC42ODgtNTQuNDIyLTY0LjY4OC05Ni43OTcgMC4wNDY4NzUtNTcuODQ0IDQ2LjkyMi0xMDQuNzIgMTA0Ljc3LTEwNC43N3ptMTAwLjU5LTM4LjI5N2MyNS43ODEgMC4xNDA2MiA0Ni42NDEgMjEuMDQ3IDQ2Ljc4MSA0Ni44Mjh2MTkyLjQyYy0wLjE0MDYyIDI1Ljc4MS0yMSA0Ni42ODgtNDYuNzgxIDQ2Ljc4MWgtMjAxLjE5Yy0yNS43ODEtMC4wOTM3NS00Ni42NDEtMjEtNDYuNzgxLTQ2Ljc4MXYtMTkyLjM3YzAuMTQwNjItMjUuNzgxIDIxLTQ2LjY4OCA0Ni43ODEtNDYuNzgxem0tMjAxLjE0LTI4Ljc4MWgyMDEuMTRjNDEuNjcyIDAuMDkzNzUgNzUuNDY5IDMzLjg5MSA3NS41NjIgNzUuNjA5djE5Mi40MmMtMC4wOTM3NSA0MS43MTktMzMuODkxIDc1LjUxNi03NS41NjIgNzUuNjA5aC0yMDEuMTljLTQxLjY3Mi0wLjA5Mzc1LTc1LjQ2OS0zMy44OTEtNzUuNTYyLTc1LjYwOXYtMTkyLjM3YzAuMDkzNzUtNDEuNzE5IDMzLjg5MS03NS41MTYgNzUuNTYyLTc1LjYwOXptODYuMTU2IDE3MS44NGMwLjA0Njg3NS01LjgxMjUgMy42MDk0LTExLjAxNiA5LTEzLjE3MiA1LjM5MDYtMi4yMDMxIDExLjUzMS0wLjkzNzUgMTUuNjA5IDMuMTg3NSA0LjEyNSA0LjEyNSA1LjI5NjkgMTAuMzEyIDMuMDQ2OSAxNS43MDMtMi4yMDMxIDUuMzQzOC03LjQ1MzEgOC44NTk0LTEzLjI2NiA4Ljg1OTQtMy44NDM4IDAtNy41NDY5LTEuNTQ2OS0xMC4yMTktNC4zMTI1LTIuNzE4OC0yLjcxODgtNC4yMTg4LTYuNDIxOS00LjE3MTktMTAuMjY2em0tMTc2LjQ4IDE3Ni40OGMyLjY3MTkgMi43NjU2IDQuMTI1IDYuNTE1NiA0LjAzMTIgMTAuMzU5cy0xLjc4MTIgNy41LTQuNTkzOCAxMC4xMjVjLTIuODEyNSAyLjU3ODEtNi42MDk0IDMuOTM3NS0xMC40NTMgMy43NXMtNy40NTMxLTEuOTIxOS05Ljk4NDQtNC44MjgxYy00OS4zNTktNTMuMjk3LTc2Ljc4MS0xMjMuMjQtNzYuNzgxLTE5NS44OSAwLTcyLjY0OCAyNy40MjItMTQyLjYgNzYuNzgxLTE5NS44OSAyLjUzMTItMi45MDYyIDYuMTQwNi00LjY0MDYgOS45ODQ0LTQuODI4MXM3LjY0MDYgMS4xNzE5IDEwLjQ1MyAzLjc1YzIuODEyNSAyLjYyNSA0LjUgNi4yODEyIDQuNTkzOCAxMC4xMjVzLTEuMzU5NCA3LjU5MzgtNC4wMzEyIDEwLjM1OWMtNDQuMzkxIDQ4LjA0Ny02OS4wNDcgMTExLjA1LTY5LjA0NyAxNzYuNDhzMjQuNjU2IDEyOC40NCA2OS4wNDcgMTc2LjQ4em0zODEuNzQtMzUyLjk3Yy0yLjY3MTktMi43NjU2LTQuMTI1LTYuNTE1Ni00LjAzMTItMTAuMzU5czEuNzgxMi03LjUgNC41OTM4LTEwLjEyNWMyLjgxMjUtMi41NzgxIDYuNjA5NC0zLjkzNzUgMTAuNDUzLTMuNzVzNy40NTMxIDEuOTIxOSA5Ljk4NDQgNC44MjgxYzQ5LjM1OSA1My4yOTcgNzYuNzgxIDEyMy4yNCA3Ni43ODEgMTk1Ljg5IDAgNzIuNjQ4LTI3LjQyMiAxNDIuNi03Ni43ODEgMTk1Ljg5LTIuNTMxMiAyLjkwNjItNi4xNDA2IDQuNjQwNi05Ljk4NDQgNC44Mjgxcy03LjY0MDYtMS4xNzE5LTEwLjQ1My0zLjc1Yy0yLjgxMjUtMi42MjUtNC41LTYuMjgxMi00LjU5MzgtMTAuMTI1czEuMzU5NC03LjU5MzggNC4wMzEyLTEwLjM1OWM0NC4zOTEtNDguMDQ3IDY5LjA0Ny0xMTEuMDUgNjkuMDQ3LTE3Ni40OHMtMjQuNjU2LTEyOC40NC02OS4wNDctMTc2LjQ4em0tNDMwLjUgMzk4LjA2Yy01NS43MzQtNjAuMzI4LTg2LjcxOS0xMzkuNDUtODYuNzE5LTIyMS41OCAwLTgyLjEyOSAzMC45ODQtMTYxLjI2IDg2LjcxOS0yMjEuNTggNS4zNDM4LTUuODEyNSA1LjAxNTYtMTQuODU5LTAuNzk2ODgtMjAuMjAzLTUuODEyNS01LjM5MDYtMTQuODU5LTUuMDE1Ni0yMC4yMDMgMC43NS02MC43MDMgNjUuNTc4LTk0LjQ1MyAxNTEuNjktOTQuNDUzIDI0MS4wMyAwIDg5LjM0IDMzLjc1IDE3NS40NSA5NC40NTMgMjQxLjAzIDUuMzQzOCA1Ljc2NTYgMTQuMzkxIDYuMTQwNiAyMC4yMDMgMC43NSA1LjgxMjUtNS4zNDM4IDYuMTQwNi0xNC4zOTEgMC43OTY4OC0yMC4yMDN6bTQ3OS4yNi00NDMuMTZjNTUuNzM0IDYwLjMyOCA4Ni43MTkgMTM5LjQ1IDg2LjcxOSAyMjEuNTggMCA4Mi4xMjktMzAuOTg0IDE2MS4yNi04Ni43MTkgMjIxLjU4LTUuMzQzOCA1LjgxMjUtNS4wMTU2IDE0Ljg1OSAwLjc5Njg4IDIwLjIwMyA1LjgxMjUgNS4zOTA2IDE0Ljg1OSA1LjAxNTYgMjAuMjAzLTAuNzUgNjAuNzAzLTY1LjU3OCA5NC40NTMtMTUxLjY5IDk0LjQ1My0yNDEuMDMgMC04OS4zNC0zMy43NS0xNzUuNDUtOTQuNDUzLTI0MS4wMy01LjM0MzgtNS43NjU2LTE0LjM5MS02LjE0MDYtMjAuMjAzLTAuNzUtNS44MTI1IDUuMzQzOC02LjE0MDYgMTQuMzkxLTAuNzk2ODggMjAuMjAzem0tNTM5LjgxIDQ5OS4yMmMtNjkuODQ0LTc1LjYwOS0xMDguNjYtMTc0LjcxLTEwOC42Ni0yNzcuNnMzOC44MTItMjAyLjAzIDEwOC42Ni0yNzcuNmM1LjM0MzgtNS44MTI1IDUuMDE1Ni0xNC44NTktMC43OTY4OC0yMC4yMDMtNS44MTI1LTUuMzkwNi0xNC44NTktNS4wMTU2LTIwLjIwMyAwLjc5Njg4LTc0LjgxMiA4MC44MTItMTE2LjM0IDE4Ni44NC0xMTYuMzQgMjk3IDAgMTEwLjExIDQxLjUzMSAyMTYuMTQgMTE2LjM0IDI5NyA1LjM0MzggNS43NjU2IDE0LjM5MSA2LjE0MDYgMjAuMjAzIDAuNzUgNS44MTI1LTUuMzQzOCA2LjE0MDYtMTQuMzkxIDAuNzk2ODgtMjAuMjAzem02MDAuMzctNTU1LjI0YzY5Ljg0NCA3NS41NjIgMTA4LjYxIDE3NC43MSAxMDguNjEgMjc3LjYgMCAxMDIuODktMzguNzY2IDIwMi4wMy0xMDguNjEgMjc3LjYtNS4zNDM4IDUuODEyNS01LjAxNTYgMTQuODU5IDAuNzk2ODggMjAuMjAzczE0Ljg1OSA1LjAxNTYgMjAuMjAzLTAuNzk2ODhjNzQuODEyLTgwLjgxMiAxMTYuMzQtMTg2Ljg5IDExNi4zNC0yOTcgMC0xMTAuMTEtNDEuNTMxLTIxNi4xOS0xMTYuMzQtMjk3LTUuMzQzOC01Ljc2NTYtMTQuMzkxLTYuMTQwNi0yMC4yMDMtMC43OTY4OC01LjgxMjUgNS4zOTA2LTYuMTQwNiAxNC40MzgtMC43OTY4OCAyMC4yNXptLTY3NS42MSA2MjQuNzRjNS4xNTYyIDUuODEyNSA0LjY4NzUgMTQuNjcyLTAuOTg0MzggMTkuOTY5LTUuNzE4OCA1LjI1LTE0LjU3OCA1LjAxNTYtMTkuOTY5LTAuNTYyNS05Mi4zNDQtOTkuNzUtMTQzLjY4LTIzMC42OC0xNDMuNjgtMzY2LjYxIDAtMTM1Ljg5IDUxLjMyOC0yNjYuODEgMTQzLjY4LTM2Ni41NiA1LjM5MDYtNS41NzgxIDE0LjI1LTUuODEyNSAxOS45NjktMC41NjI1IDUuNjcxOSA1LjI5NjkgNi4xNDA2IDE0LjE1NiAwLjk4NDM4IDE5Ljk2OS04Ny4zMjggOTQuNS0xMzUuODQgMjE4LjQ4LTEzNS44NCAzNDcuMTYgMCAxMjguNjggNDguNTE2IDI1Mi42NiAxMzUuODQgMzQ3LjE2em03NTAuODQtNjk0LjMxYy0yLjY3MTktMi43NjU2LTQuMTI1LTYuNDY4OC00LjAzMTItMTAuMzU5IDAuMDkzNzUtMy44NDM4IDEuNzM0NC03LjUgNC41OTM4LTEwLjA3OCAyLjgxMjUtMi42MjUgNi41NjI1LTMuOTg0NCAxMC40NTMtMy43OTY5IDMuODQzOCAwLjE4NzUgNy40NTMxIDEuOTIxOSA5Ljk4NDQgNC44MjgxIDkyLjM0NCA5OS43NSAxNDMuNjMgMjMwLjY4IDE0My42MyAzNjYuNjEgMCAxMzUuODktNTEuMjgxIDI2Ni44MS0xNDMuNjMgMzY2LjU2LTIuNTMxMiAyLjkwNjItNi4xNDA2IDQuNjQwNi05Ljk4NDQgNC44MjgxLTMuODkwNiAwLjE4NzUtNy42NDA2LTEuMTcxOS0xMC40NTMtMy43OTY5LTIuODU5NC0yLjU3ODEtNC41LTYuMjM0NC00LjU5MzgtMTAuMDc4LTAuMDkzNzUtMy44OTA2IDEuMzU5NC03LjU5MzggNC4wMzEyLTEwLjM1OSA4Ny4zNzUtOTQuNSAxMzUuODktMjE4LjQ4IDEzNS44OS0zNDcuMTYgMC0xMjguNzItNDguNTE2LTI1Mi43MS0xMzUuODktMzQ3LjIxeiIvPiYjeGE7PC9zdmc+;" vertex="1" parent="1">
          <mxGeometry x="105" y="478.48" width="90" height="61.91" as="geometry" />
        </mxCell>
        <mxCell id="A5Bh5DaIcDQkjLzcvcFg-8" style="edgeStyle=orthogonalEdgeStyle;rounded=0;orthogonalLoop=1;jettySize=auto;html=1;entryX=0;entryY=0.5;entryDx=0;entryDy=0;" edge="1" parent="1" source="A5Bh5DaIcDQkjLzcvcFg-2" target="A5Bh5DaIcDQkjLzcvcFg-3">
          <mxGeometry relative="1" as="geometry" />
        </mxCell>
        <mxCell id="A5Bh5DaIcDQkjLzcvcFg-14" value="&amp;nbsp;Chunks " style="edgeLabel;html=1;align=center;verticalAlign=middle;resizable=0;points=[];" vertex="1" connectable="0" parent="A5Bh5DaIcDQkjLzcvcFg-8">
          <mxGeometry x="-0.0252" relative="1" as="geometry">
            <mxPoint as="offset" />
          </mxGeometry>
        </mxCell>
        <mxCell id="A5Bh5DaIcDQkjLzcvcFg-2" value="" style="image;aspect=fixed;perimeter=ellipsePerimeter;html=1;align=center;shadow=0;dashed=0;spacingTop=3;image=img/lib/active_directory/database_server.svg;" vertex="1" parent="1">
          <mxGeometry x="320" y="460.045" width="81" height="98.78" as="geometry" />
        </mxCell>
        <mxCell id="A5Bh5DaIcDQkjLzcvcFg-15" style="edgeStyle=orthogonalEdgeStyle;rounded=0;orthogonalLoop=1;jettySize=auto;html=1;" edge="1" parent="1" source="A5Bh5DaIcDQkjLzcvcFg-3" target="A5Bh5DaIcDQkjLzcvcFg-4">
          <mxGeometry relative="1" as="geometry" />
        </mxCell>
        <mxCell id="A5Bh5DaIcDQkjLzcvcFg-3" value="" style="image;aspect=fixed;perimeter=ellipsePerimeter;html=1;align=center;shadow=0;dashed=0;spacingTop=3;image=img/lib/active_directory/databases.svg;" vertex="1" parent="1">
          <mxGeometry x="520" y="465.335" width="90" height="88.2" as="geometry" />
        </mxCell>
        <mxCell id="A5Bh5DaIcDQkjLzcvcFg-4" value="" style="shape=image;verticalLabelPosition=bottom;labelBackgroundColor=default;verticalAlign=top;aspect=fixed;imageAspect=0;image=data:image/png,iVBORw0KGgoAAAANSUhEUgAAAOEAAADhCAMAAAAJbSJIAAAAgVBMVEX///8AAACgoKDU1NTr6+uAgICsrKwHBweUlJRcXFzZ2dn7+/tnZ2fn5+c2Njbg4ODy8vISEhK5ublOTk6/v7/Nzc1iYmKTk5OGhoYuLi6jo6OwsLAjIyMcHBw8PDyMjIxvb29TU1N5eXlDQ0PGxsZ0dHQgICAyMjIXFxdISEgpKSksr9HsAAAOkUlEQVR4nO1d54KyvBIWu6ArKpa1gttevf8LPIu0zGTSMMjyHZ79tQghDyTTEzqdFi1atGjRokWLFi1atGjRokWLFi00MJvV3YNqMT87zuJ9cjl8/keJ9h0GoV93dyrAhWXo3OruTgWYAIZOUHd/noU/cEZXdih6d8hwV1vX7GC9iFmcvOKIBwk63fo6ZwP7lMamODRDDD/r650EnhscuoNwEq1uq2gS7rrLT5c6bUO8qU/EkLqwTnjz4eXDoXE7wHPdBfPjOr3e66Kr/pJO9NzxxpEBTqkD+O2f3/F72+kdX/PuCe72cnhB+C6l94sle8ES/Rh9fVPXrOoihLAOVexi9NhLRGMZ4dwvLpmPd/Vox353oe5pDFZo+CO9axznK9OW4/i/j9ePWvdLt6vvzOvoeGfdyxxn+Hgkqa0zfTU/uWxhsFjCK/fqS3JM/E7vCPi+CjNtfs4Xd7H+tY4z2jL/9IieVAN/p99F4sF7mrOXw/FVHtXwn36nllQDvZIMWRuvQvQjgy4JrGeTqajTnlUc1N0oIHzmb2UpVm6selN1JxZvq81mOp1uJre+oJmLuhUBrhUTdOX22Wi6Pcz7vlI1Yy/CAJNqCWKLErC7LkVvDAO7uia4VEpwK7zveWwyPwZUEz9fy7XrroPtTcpQ9ymWgshIW+zMNPGcaGO6Zn4fCy3X70oFzYS+6fGgaRF/bm5hN1j7xJP6QY/IFzzMTaUan/Z5ztpOjXiIOwP+bFIWVasMI+qWP6TFQoIaminG5PmcZXev1iolh2jXwGMTWzEC6eji86p1gSlHPjISa6T8jCFUcFg1VarrKVfC0FkT2kJi4YEf65MkZCBM0fPcsA1RcIachAlwhLg6TUH4OqFpG8LgjGwqo5dYmYvv87E+c7HtCwhKJ9fa4NxnwItRfR2RY801kkAuIOG555IEVBhyvSqTMeFbSSA3UtDDrSaciKd7nmcww5gmeJR3GmUy/v2srsPAtuUWWSGI+5pBEbmn37xE/JYApyhKzMEYfaqrSn9WEDE5yK8yAicCSxu/tPMcyS8SzF6bORtsa/HRXW3097uIs6Z/jOah5lUmwGLmeXk9Q56fXGwITD3FmzcBvoOFrCwarXK5RRN0wue7kQI7MDZmOFL90sAS50DpXGQElEGxEsjDQlV2rig7UlKe88CP0E7lwBE2KjGnhda6NWf/Ctu1FCVB4vkklovCwLip5yYC0oUnS80GqLtEGCqBMEH1z5bdhkxJa2ES3GGB/BKn+39s9eQEmn231Sxvg5OCwxdnp2z5iUisW3qFPhW0I6TN/EdIUGEl6AMaH292Gu3R+e0p7jQRe3TdZff68XuurcyFDwepnRiJwM78xZjptxcQI9R+CAOG1e2IL0lg33E2e3fm+/15cOUq3GLYz1hAZWjlCQp8RPZBnkQC1H7KwoOD1IoV8UTmt4IqPmix3a20WbrGxBmJDMYn6vmgTLATGfGURZoiiHi4pbVYbwhnu6V4uihoqkRIt/co7jePbfoHzrNePMWLgd1CIW/1+M1MRvSHlM0hNI6NYVKzB0DQ8KLkp5GBq/Ep6IA1j7PjM97hm2atcALOyZrnE+lNMzDl7clq6xgWKzwKGT31yLyrCCjA4G3Fv9HwBWH3GGeb+YIsBPqYWUuDIkcwTpH5t1fe1pPWa4cWCabG0jHtr0GhKlAL2LBTCfvgRLaZwbLFtJzcxoWVOdMdqiDuiII9ikCusl602ioPOtx/WqED0H3jJP5Wcgd1vWi1q3P4eNMp2q09ROKOpB1HUdhJTz1IrMUvaKCI3tt6lgxhnxUNIRZ2Hq7vE8nTmUatrsUsAQU0HItFFYyNR/jfPpYddH5AYSguztPup63gpAC4bp+xnzIb70hKSlxGRi4bxqFLFvdw36u0ljMFrqZlVVtiIHNBnBRYgBAvUUzw1p2/apERdvxBP+P4uDhChDwEvmpe5HK/DV+5Eh6/QzQiZV3x0QDH80mQurq+em0q1BZGIS80TtHa7z5pp21fMfUQdpJeKoBWwcEfqXrxXT0bNfifw/EmscNCsyvRRAOmK1HuuapYL6jgrwPjEQRfIqv1CSmj9kD+IJA6YBQANwlPf23xux486GQUUSlujN6aulUKlMR5aJ5TFK9Z1lcFoO2Wu4k44FTxaqlKAWVN6kPh6HpVlakvARymaVQQeY+nps7BB6B7lBgM2O0oVzD6ZwC4JL4scqqbvpMPjCvHGhEZ86O6e/gsYGI5nnEotvU3N/IxAOQTTzkoZ5q/ZRgUKwfOa2r8jmFI1HSxzW2pTKZWgKDbAJukmgH7oAuxHx6ysGaMfleAomTNX2/Dc5yHOa4G+zx6uxRd+Avt0QXCkRPs+WqGs8m84mKTSSlRLa/zkZ7gbWF0M0qvjEQXOga2MohpfyBdoVvlJ1o8OFUwTItEejiRkjnzgsXTbNtqgCjIHXVGt8ZCuDzypsOQjDtH1hgCy/QfCk/pKkPxZhhjNUPBwryhLYZA5Y9Q8lQ37Ctm+Ij+yRkWsm0ymBZVXXH5sxWGIHs9gjWV37qN5AzvYbxnCZvOWcsYxpLGzzLZxz7sT1AFQweKVm1xlTMMk/+ZnNwWMCSiPbk3mvpuA6atjbNIkbeQHwhLMRx1QOmttluBGTKGxAAwJNLFuYmRJiDyRMXvC/b7CfzCDlnnx3Q7B+bhAhoAstSwgmEePNBnOEpf4mXcPQTrOaBQhB3Mg7ZAln53QP2mdgkCzzB/UmMVQ3aSRnuBu/0MQ+DvvkGG2kFgjmFRoAYlTdCfMXiIFhTSdKIuQeIZhkBcRc8ynMxd1+11Cyvu7nXEsjSJKfDF3ecxDt8/wxDU1nw9O0o5PGxrEcNUVlMLC9Dys2cYgnbHz0oajLCjwdCntoL8Bq/xCYYwiTx8VlsgpGUFCoYdj6rtOlqSpTA5E0CNr2020AxXKu+psCjmV/5X9u5PMITTfAatNu1aIIrhe2G/iBiy2QJ/yZlojAH0BENYj+MhxsYMz+OwMLDyQS612hj09mA1NyNtnmAICN1wcl83acjqw34Rgs3Wrks1PoS/LMx2ZhFFeYbQ+bzirIzuaiag8Zkl7F01w1kQLLuXr80tK6UuNtk92mAIMzMHHPHWTatBm4YxdV0lw9z6ybOXuaHKrFMpzxBqojl3pBRDZujjKAbP0OXulYdwmZLA0gzhmHzUtEOxrRnGQAyZ7SrWkAW0S2czjylcygRTPq5sSBoYHH0IBihqwlIMO8XynhtkiLFmg33XR9CkkOYWtAWKAT1eGNzqYqRXwYIZMnZEoGLI/vg2ZbQXG2EoyxCtMEjiTjDfpudecN5TEVf+UDHE+UqSS0mGKFOY9g7m2/TMGo4ho4UCFUPSt0A5oZIMUY14KlVQd7RW/PA+fpQ3cFcyJBeeQxlXjiHK1+cL0OD9tHLAucebW8tM40MVw99xg2uwQjT/yzFEJeK5uzsUHJfgMkkQXbhDk8m0M48mNFaZuPSXX7kiPk26XEKoaMFg6QNeOJ27Y7gq90UlpZ7vz3vr9Vy9U7QmcBE34+2iqraGVkRxU4N5U3j3p0bWXXIEQeQH70PcwMpLl1u4DwY/t6dv4+q++ApgpPVwfanVNZQvAB+CxUkmbtv3qEkUfT5stOAUArck79YcigGxjoIo3IjwOXiB319Fn6oLoTZw47clbUR5lE9uAENneomlo1ftkTrvIdDCeIZPK+DOiTHjoZPwKf6YXPstmmHE5vwnza0F+G/90EaDdMed0T3aIzMbr2ODocC+YP+2d6Guo/Ildy2OvDaiS48ka/yz3oH79ZEaZxkGoqoGyVafxC7WMcex2n8hJjsZClYzdJwPxqCSMBSXe8isFdHnCm5beeia+ogKmcbSYchKOAlDUV8nctmhrLijQe19S35NS49h4e6bM1TuuiKiKN+Wifz2HaVrNBnmfo8xQ40NVV16PwwpQ/qxULlIXYaZh2rIUO/rBTNyczQpQ8FmHcQw1WWYhXPMGGrvREtJYRlD/OXlDIRK1GYYmjM8Gzi1xFZ/MoaiJeDEjmeI4eg9BqmjfEOGC7NdDntcPFPGUFiXwT9UxPDN937//L7L2zo9M4YXY5cdDycJQ9GHKijJjRnmuourP+maMNyVcYN8uMWJhKF4Q7JvTvkKGXJcdtoMT9uynuyc5ShhCPbNg8ONU4lihlggh5oMV7ofCCMxK/orZgiU4T8fyFVOJUoYour2iQ7D0eX5oGAwVTEEMawNCmnh+SFhiNaxKhm6zsDSOknvc3CW2KUekPVLpDqwStR/h1MVQ7thpNlaaO/BXEEf1evgVVT681ApaV4GoAzP+ABWiWKG2ERJlrb8AYYwzBArMRjuQV6ikOGc3uTpDzCEyjA27aEBgNKtnE0Toz8L+BCR0mp7FUBGPtloPwJ9giqRt0vv9yPlr6XhwPoZQs8w8V6g3Q4jl9q+Rfpg6mcItV9iLSOZAZLUugwz5VQ7Qw90IPswBTSigUrUZZiJ4NoZQmWYFZdCzQZsBU2G+SrI2hnCaEAmVJB1wqpEPYaF11U3Q5jMKTJ2sFesStRiyFS71M0QSs2iOBTtnslcocHwgw0+180QipTCdEV1LUw5l5JhBGu/amaIwqTbYQbk9TPlORKGi+Ntt8QOQ80MhR/0xSi8RMTw3c0wn5GhpJoZ6hJkVCK2S1W3qJehbK9TiGK7FIl/SKJehpE2w0IlNoohUdkgRK4SG8VQ/JUfAtlFjWJI5gxFyAy6JjE0+0RMphKbxFBbGSZItV2TGJoRzFRigxiiHdDOwRIiQFXz6U6MDWKICPDpXlxDlqjE5jDEypCvEMD1WolKbA5DpAypjyOht5zkEpvDEGXBqY0KsKMUEAf/LkOsDKmaMFxk8wicNoYhUoYLqqMernaIVWJTGOLaBPpbiHiVYRxgQjUX70qGqI1XMXSvAxZXunARnTWIg6ABPKYsYvJ38E4N3x23RYsWLVq0aNGiRYsWLVq0aNHi/xr/A7jAvbyOkOBZAAAAAElFTkSuQmCC;" vertex="1" parent="1">
          <mxGeometry x="750" y="453.435" width="112" height="112" as="geometry" />
        </mxCell>
        <mxCell id="A5Bh5DaIcDQkjLzcvcFg-7" value="x..." style="text;html=1;align=center;verticalAlign=middle;whiteSpace=wrap;rounded=0;fontSize=70;" vertex="1" parent="1">
          <mxGeometry x="140" y="579.8699999999999" width="380" height="162" as="geometry" />
        </mxCell>
        <mxCell id="A5Bh5DaIcDQkjLzcvcFg-16" value="Metadata + trenddata endpoints" style="text;html=1;align=center;verticalAlign=middle;whiteSpace=wrap;rounded=0;" vertex="1" parent="1">
          <mxGeometry x="740" y="563.87" width="110" height="30" as="geometry" />
        </mxCell>
      </root>
    </mxGraphModel>
  </diagram>
</mxfile>
